<svg width="80" height="80" viewBox="0 0 80 80" fill="none" xmlns="http://www.w3.org/2000/svg">
  <path fill-rule="evenodd" clip-rule="evenodd" d="M36.384 7.0241C19.7653 8.82579 6.82927 22.9022 6.82927 40C6.82927 46.4234 8.65507 52.4204 11.816 57.5003C10.1422 51.446 10.2513 45.1116 12.3987 40.0206L12.3878 39.9984L12.5656 39.6366C12.7486 39.2278 12.9451 38.8274 13.1553 38.4364C18.0398 28.5489 28.225 21.7476 39.9985 21.7469C48.957 21.7374 56.9833 25.6845 62.4617 31.9142C62.7008 27.5837 61.5957 22.5377 58.9203 18.0189C54.8821 11.1986 47.4722 5.98419 36.3841 7.02515L36.384 7.0241ZM67.4059 40.4013L67.6033 40.0005L67.5913 39.9759C69.7411 34.8764 69.8464 28.5298 68.1636 22.4669C71.3371 27.5538 73.1707 33.5628 73.1707 40C73.1707 57.1017 60.2289 71.1806 43.6047 72.9771L43.6045 72.9745C32.5164 74.0155 25.1065 68.8011 21.0683 61.9807C18.3933 57.4629 17.2882 52.4178 17.5268 48.0879C23.006 54.3149 31.041 58.252 40.0004 58.252C51.7824 58.252 61.9533 51.4199 66.8345 41.561C67.0377 41.1828 67.2281 40.7961 67.4059 40.4013ZM40 0C17.9086 0 0 17.9086 0 40C0 62.0914 17.9086 80 40 80C62.0914 80 80 62.0914 80 40C80 17.9086 62.0914 0 40 0ZM59.9206 39.9983C57.0626 35.1342 52.4864 31.4082 47.0334 29.6641C50.3279 31.913 52.4907 35.6979 52.4907 39.9876C52.4907 44.3009 50.3002 48.1019 46.9767 50.346C52.4552 48.6058 57.053 44.872 59.9206 39.9983ZM20.0665 40.0003C22.9223 35.1346 27.5013 31.4141 32.959 29.6691C29.6687 31.9187 27.5092 35.7011 27.5092 39.9876C27.5092 44.303 29.6979 48.1074 33.0257 50.3513C27.5333 48.6142 22.9285 44.8801 20.0665 40.0003ZM39.9999 34.3261C36.8735 34.3261 34.3385 36.8611 34.3385 39.9876C34.3385 43.1141 36.8735 45.649 39.9999 45.649C43.1176 45.649 45.6614 43.1112 45.6614 39.9876C45.6614 36.8611 43.1264 34.3261 39.9999 34.3261Z" fill="#ED795E"/>
</svg>
